<svg xmlns="http://www.w3.org/2000/svg" xmlns:xlink="http://www.w3.org/1999/xlink" width="500" zoomAndPan="magnify" viewBox="0 0 375 374.999991" height="500" preserveAspectRatio="xMidYMid meet" version="1.0"><defs><clipPath id="2e3593846d"><path d="M 151 113 L 227.90625 113 L 227.90625 151 L 151 151 Z M 151 113 " clip-rule="nonzero"/></clipPath><clipPath id="f6cfbbc649"><path d="M 188 130 L 227.90625 130 L 227.90625 151 L 188 151 Z M 188 130 " clip-rule="nonzero"/></clipPath><clipPath id="97c3f4ba24"><path d="M 146.90625 179 L 225 179 L 225 262.5 L 146.90625 262.5 Z M 146.90625 179 " clip-rule="nonzero"/></clipPath></defs><rect x="-37.5" width="450" fill="#ffffff" y="-37.499999" height="449.999989" fill-opacity="1"/><rect x="-37.5" width="450" fill="#ffffff" y="-37.499999" height="449.999989" fill-opacity="1"/><g clip-path="url(#2e3593846d)"><path fill="#000000" d="M 221.09375 115.941406 C 220.648438 115.941406 220.203125 116.027344 219.785156 116.191406 L 156.550781 140.570312 C 155.636719 140.914062 154.917969 141.601562 154.515625 142.496094 C 154.128906 143.390625 154.097656 144.378906 154.449219 145.292969 C 155.144531 147.113281 157.328125 148.105469 159.164062 147.390625 L 222.398438 123.007812 C 223.308594 122.667969 224.03125 121.980469 224.429688 121.085938 C 224.820312 120.191406 224.847656 119.199219 224.496094 118.285156 C 223.957031 116.886719 222.585938 115.941406 221.09375 115.941406 Z M 157.851562 150.074219 C 155.351562 150.074219 153.074219 148.503906 152.179688 146.171875 C 151.589844 144.648438 151.636719 142.988281 152.292969 141.503906 C 152.957031 140.019531 154.15625 138.875 155.667969 138.296875 L 218.910156 113.914062 C 221.96875 112.734375 225.597656 114.382812 226.769531 117.410156 C 227.355469 118.933594 227.308594 120.589844 226.652344 122.074219 C 225.988281 123.5625 224.792969 124.703125 223.28125 125.285156 L 160.039062 149.667969 C 159.335938 149.941406 158.601562 150.074219 157.851562 150.074219 " fill-opacity="1" fill-rule="nonzero"/></g><path fill="#000000" d="M 175.894531 133.007812 C 175.753906 133.007812 175.609375 132.980469 175.457031 132.933594 L 155.667969 125.296875 C 152.550781 124.085938 150.984375 120.550781 152.171875 117.410156 C 153.359375 114.363281 157.015625 112.769531 160.027344 113.894531 L 189.910156 125.410156 C 190.539062 125.648438 190.851562 126.363281 190.613281 126.992188 C 190.367188 127.609375 189.671875 127.921875 189.035156 127.683594 L 159.164062 116.179688 C 157.394531 115.515625 155.152344 116.457031 154.441406 118.296875 C 153.726562 120.160156 154.679688 122.296875 156.539062 123.019531 L 176.332031 130.648438 C 176.960938 130.894531 177.273438 131.601562 177.035156 132.226562 C 176.847656 132.714844 176.390625 133.007812 175.894531 133.007812 " fill-opacity="1" fill-rule="nonzero"/><g clip-path="url(#f6cfbbc649)"><path fill="#000000" d="M 221.09375 150.074219 C 220.34375 150.074219 219.613281 149.941406 218.917969 149.683594 L 189.035156 138.171875 C 188.410156 137.933594 188.097656 137.21875 188.332031 136.589844 C 188.582031 135.972656 189.273438 135.65625 189.910156 135.894531 L 219.785156 147.398438 C 221.550781 148.066406 223.792969 147.125 224.507812 145.285156 C 225.21875 143.417969 224.269531 141.285156 222.40625 140.5625 L 202.613281 132.933594 C 201.988281 132.683594 201.675781 131.980469 201.910156 131.351562 C 202.148438 130.722656 202.851562 130.410156 203.488281 130.648438 L 223.28125 138.285156 C 226.398438 139.496094 227.964844 143.027344 226.777344 146.171875 C 225.867188 148.503906 223.585938 150.074219 221.09375 150.074219 " fill-opacity="1" fill-rule="nonzero"/></g><path fill="#000000" d="M 189.472656 174.457031 C 184.78125 174.457031 180.960938 178.285156 180.960938 182.988281 C 180.960938 187.695312 184.78125 191.523438 189.472656 191.523438 C 194.167969 191.523438 197.988281 187.695312 197.988281 182.988281 C 197.988281 178.285156 194.167969 174.457031 189.472656 174.457031 Z M 189.472656 193.960938 C 183.441406 193.960938 178.527344 189.035156 178.527344 182.988281 C 178.527344 176.941406 183.441406 172.019531 189.472656 172.019531 C 195.507812 172.019531 200.417969 176.941406 200.417969 182.988281 C 200.417969 189.035156 195.507812 193.960938 189.472656 193.960938 " fill-opacity="1" fill-rule="nonzero"/><g clip-path="url(#97c3f4ba24)"><path fill="#000000" d="M 204.070312 262.226562 C 197.988281 262.226562 197.988281 258.464844 197.988281 253.695312 C 197.988281 249.828125 196.191406 240.855469 189.53125 233.570312 C 187.261719 236.3125 181.101562 243.941406 178.40625 249.359375 C 176.894531 252.378906 171.488281 262.226562 165.148438 262.226562 C 162.726562 262.226562 159.070312 262.226562 159.070312 256.132812 C 159.070312 252.828125 162.613281 247.21875 166.726562 240.730469 C 169.035156 237.085938 171.429688 233.304688 173.273438 229.789062 C 173.53125 229.292969 173.664062 228.742188 173.652344 228.1875 C 173.617188 224.199219 173.347656 210.371094 171.667969 200.152344 C 171.496094 199.085938 170.820312 198.160156 169.851562 197.683594 L 163.335938 194.410156 C 161.863281 197.75 157.679688 206.152344 152.988281 206.152344 C 146.90625 206.152344 146.90625 202.390625 146.90625 197.617188 C 146.90625 192.589844 154.335938 179.332031 160.285156 179.332031 C 165.378906 179.332031 170.347656 181.800781 170.554688 181.894531 C 171.15625 182.199219 171.402344 182.933594 171.105469 183.53125 C 170.804688 184.132812 170.089844 184.378906 169.472656 184.085938 C 169.425781 184.054688 164.789062 181.769531 160.285156 181.769531 C 156.523438 181.769531 149.339844 193.007812 149.339844 197.617188 C 149.339844 202.75 149.453125 203.714844 152.988281 203.714844 C 155.769531 203.714844 159.695312 197.035156 161.585938 192.285156 C 161.71875 191.96875 161.964844 191.722656 162.289062 191.597656 C 162.613281 191.476562 162.953125 191.503906 163.257812 191.648438 L 170.945312 195.503906 C 172.597656 196.332031 173.765625 197.921875 174.070312 199.75 C 175.78125 210.140625 176.046875 224.132812 176.085938 228.167969 C 176.09375 229.121094 175.867188 230.066406 175.421875 230.914062 C 173.539062 234.523438 171.117188 238.351562 168.769531 242.046875 C 165.195312 247.695312 161.5 253.53125 161.5 256.132812 C 161.5 259.789062 162.71875 259.789062 165.148438 259.789062 C 169.082031 259.789062 173.578125 253.589844 176.21875 248.273438 C 179.6875 241.320312 188.191406 231.378906 188.550781 230.949219 C 188.769531 230.703125 189.09375 230.542969 189.425781 230.53125 C 189.757812 230.484375 190.101562 230.644531 190.328125 230.894531 C 198.308594 238.882812 200.417969 249.304688 200.417969 253.695312 C 200.417969 258.828125 200.535156 259.789062 204.070312 259.789062 C 207.421875 259.789062 207.71875 256.941406 207.71875 248.816406 C 207.71875 241.875 198.214844 222.730469 198.109375 222.542969 C 198.035156 222.378906 197.988281 222.1875 197.988281 222 L 197.988281 204.933594 C 197.988281 204.4375 198.28125 203.988281 198.738281 203.808594 C 199.183594 203.617188 199.714844 203.722656 200.058594 204.074219 C 205.570312 209.589844 215.488281 218.339844 218.664062 218.339844 C 222.3125 218.339844 222.3125 217.121094 222.3125 214.683594 C 221.835938 213.046875 212.222656 202.636719 203.214844 193.597656 C 202.738281 193.121094 202.738281 192.359375 203.214844 191.882812 C 203.6875 191.410156 204.449219 191.410156 204.921875 191.882812 C 213.96875 200.941406 224.742188 212.253906 224.742188 214.683594 C 224.742188 217.113281 224.742188 220.78125 218.664062 220.78125 C 214.425781 220.78125 204.953125 212.1875 200.417969 207.828125 L 200.417969 221.710938 C 201.625 224.160156 210.148438 241.683594 210.148438 248.816406 C 210.148438 256.3125 210.148438 262.226562 204.070312 262.226562 " fill-opacity="1" fill-rule="nonzero"/></g><path fill="#000000" d="M 157.851562 182.722656 C 157.175781 182.722656 156.636719 182.179688 156.636719 181.503906 L 156.636719 148.855469 C 156.636719 148.179688 157.175781 147.636719 157.851562 147.636719 C 158.527344 147.636719 159.070312 148.179688 159.070312 148.855469 L 159.070312 181.503906 C 159.070312 182.179688 158.527344 182.722656 157.851562 182.722656 " fill-opacity="1" fill-rule="nonzero"/><path fill="#000000" d="M 162.71875 250.894531 C 162.042969 250.894531 161.5 250.339844 161.5 249.675781 L 161.5 214.683594 C 161.5 214.007812 162.042969 213.464844 162.71875 213.464844 C 163.390625 213.464844 163.933594 214.007812 163.933594 214.683594 L 163.933594 249.675781 C 163.933594 250.339844 163.390625 250.894531 162.71875 250.894531 " fill-opacity="1" fill-rule="nonzero"/><path fill="#000000" d="M 157.851562 130.570312 C 157.175781 130.570312 156.636719 130.027344 156.636719 129.351562 L 156.636719 124.839844 C 156.636719 124.171875 157.175781 123.617188 157.851562 123.617188 C 158.527344 123.617188 159.070312 124.171875 159.070312 124.839844 L 159.070312 129.351562 C 159.070312 130.027344 158.527344 130.570312 157.851562 130.570312 " fill-opacity="1" fill-rule="nonzero"/><path fill="#000000" d="M 221.09375 212.199219 C 220.421875 212.199219 219.878906 211.65625 219.878906 210.980469 L 219.878906 148.855469 C 219.878906 148.179688 220.421875 147.636719 221.09375 147.636719 C 221.769531 147.636719 222.3125 148.179688 222.3125 148.855469 L 222.3125 210.980469 C 222.3125 211.65625 221.769531 212.199219 221.09375 212.199219 " fill-opacity="1" fill-rule="nonzero"/><path fill="#000000" d="M 221.09375 130.570312 C 220.421875 130.570312 219.878906 130.027344 219.878906 129.351562 L 219.878906 124.839844 C 219.878906 124.171875 220.421875 123.617188 221.09375 123.617188 C 221.769531 123.617188 222.3125 124.171875 222.3125 124.839844 L 222.3125 129.351562 C 222.3125 130.027344 221.769531 130.570312 221.09375 130.570312 " fill-opacity="1" fill-rule="nonzero"/></svg>