<svg xmlns="http://www.w3.org/2000/svg" xmlns:xlink="http://www.w3.org/1999/xlink" width="500" zoomAndPan="magnify" viewBox="0 0 375 374.999991" height="500" preserveAspectRatio="xMidYMid meet" version="1.0"><defs><filter x="0%" y="0%" width="100%" height="100%" id="0c67e53c1f"><feColorMatrix values="0 0 0 0 1 0 0 0 0 1 0 0 0 0 1 0 0 0 1 0" color-interpolation-filters="sRGB"/></filter><g/><mask id="23423f7e33"><g filter="url(#0c67e53c1f)"><rect x="-37.5" width="450" fill="#000000" y="-37.499999" height="449.999989" fill-opacity="0.75"/></g></mask><clipPath id="62500ce088"><path d="M 17 33 L 179 33 L 179 195 L 17 195 Z M 17 33 " clip-rule="nonzero"/></clipPath><clipPath id="fd8d4de17e"><path d="M 97.683594 0.378906 L 211.277344 113.972656 L 97.683594 227.570312 L -15.914062 113.972656 Z M 97.683594 0.378906 " clip-rule="nonzero"/></clipPath><clipPath id="09e8d33b0f"><path d="M 154.480469 57.175781 C 123.113281 25.808594 72.253906 25.808594 40.886719 57.175781 C 9.515625 88.542969 9.515625 139.402344 40.886719 170.769531 C 72.253906 202.140625 123.113281 202.140625 154.480469 170.769531 C 185.847656 139.402344 185.847656 88.542969 154.480469 57.175781 Z M 154.480469 57.175781 " clip-rule="nonzero"/></clipPath><clipPath id="6a306b8b29"><rect x="0" width="212" y="0" height="228"/></clipPath><clipPath id="9d1c912332"><path d="M 28 117 L 168 117 L 168 257 L 28 257 Z M 28 117 " clip-rule="nonzero"/></clipPath><clipPath id="0b3d4c781a"><path d="M 23.996094 150.253906 L 135.210938 112.875 L 172.304688 223.230469 L 61.085938 260.609375 Z M 23.996094 150.253906 " clip-rule="nonzero"/></clipPath><clipPath id="2412d7ce86"><path d="M 40.347656 144.757812 L 118.839844 118.378906 C 123.175781 116.921875 127.914062 117.246094 132.011719 119.28125 C 136.109375 121.316406 139.230469 124.898438 140.6875 129.234375 L 166.785156 206.886719 C 168.242188 211.222656 167.917969 215.960938 165.882812 220.058594 C 163.847656 224.15625 160.265625 227.273438 155.929688 228.734375 L 77.4375 255.113281 C 73.101562 256.570312 68.363281 256.246094 64.265625 254.210938 C 60.167969 252.175781 57.046875 248.59375 55.589844 244.257812 L 29.492188 166.605469 C 28.035156 162.269531 28.359375 157.53125 30.394531 153.433594 C 32.429688 149.335938 36.011719 146.21875 40.347656 144.757812 Z M 40.347656 144.757812 " clip-rule="nonzero"/></clipPath><clipPath id="ef61b3b273"><path d="M 54.570312 152.402344 L 141.695312 152.402344 L 141.695312 222.515625 L 54.570312 222.515625 Z M 54.570312 152.402344 " clip-rule="nonzero"/></clipPath></defs><g fill="#ffffff" fill-opacity="1"><g transform="translate(182.88635, 206.021381)"><g><path d="M 19.03125 0.671875 C 7.65625 0.671875 1.96875 -5.320312 1.96875 -17.3125 C 1.96875 -29.40625 7.65625 -35.453125 19.03125 -35.453125 C 22.53125 -35.453125 26.203125 -34.601562 30.046875 -32.90625 L 30.046875 -25.578125 C 26.722656 -27.796875 23.429688 -28.90625 20.171875 -28.90625 C 16.984375 -28.90625 14.597656 -28.007812 13.015625 -26.21875 C 11.441406 -24.4375 10.65625 -21.46875 10.65625 -17.3125 C 10.65625 -13.15625 11.457031 -10.207031 13.0625 -8.46875 C 14.675781 -6.738281 17.164062 -5.875 20.53125 -5.875 C 21.914062 -5.875 23.421875 -6.132812 25.046875 -6.65625 C 26.679688 -7.175781 28.347656 -7.988281 30.046875 -9.09375 L 30.046875 -1.765625 C 28.628906 -1.035156 26.894531 -0.445312 24.84375 0 C 22.800781 0.445312 20.863281 0.671875 19.03125 0.671875 Z M 19.03125 0.671875 "/></g></g></g><g fill="#ffffff" fill-opacity="1"><g transform="translate(215.636713, 206.021381)"><g><path d="M 3.6875 -34.671875 L 12.109375 -34.671875 L 12.109375 0 L 3.6875 0 Z M 3.6875 -34.671875 "/></g></g></g><g fill="#ffffff" fill-opacity="1"><g transform="translate(231.44007, 206.021381)"><g><path d="M 3.6875 -34.671875 L 12.109375 -34.671875 L 12.109375 -6.609375 L 27.1875 -6.609375 L 27.1875 0 L 3.6875 0 Z M 3.6875 -34.671875 "/></g></g></g><g fill="#ffffff" fill-opacity="1"><g transform="translate(260.291581, 206.021381)"><g><path d="M 24.0625 -7.484375 L 11.125 -7.484375 L 8.625 0 L 0.671875 0 L 13.78125 -34.671875 L 22.984375 -34.671875 L 35.25 0 L 26.609375 0 Z M 21.984375 -13.671875 L 17.578125 -26.765625 L 13.203125 -13.671875 Z M 21.984375 -13.671875 "/></g></g></g><g fill="#ffffff" fill-opacity="1"><g transform="translate(296.213007, 206.021381)"><g><path d="M 3.6875 -34.671875 L 17.625 -34.671875 C 23.445312 -34.671875 27.757812 -33.222656 30.5625 -30.328125 C 33.375 -27.429688 34.78125 -23.09375 34.78125 -17.3125 C 34.78125 -11.5625 33.375 -7.238281 30.5625 -4.34375 C 27.757812 -1.445312 23.445312 0 17.625 0 L 3.6875 0 Z M 16.640625 -6.5 C 19.785156 -6.5 22.15625 -7.378906 23.75 -9.140625 C 25.34375 -10.910156 26.140625 -13.632812 26.140625 -17.3125 C 26.140625 -21.050781 25.34375 -23.796875 23.75 -25.546875 C 22.15625 -27.296875 19.785156 -28.171875 16.640625 -28.171875 L 12.109375 -28.171875 L 12.109375 -6.5 Z M 16.640625 -6.5 "/></g></g></g><g fill="#ffffff" fill-opacity="1"><g transform="translate(333.174125, 206.021381)"><g><path d="M 24.0625 -7.484375 L 11.125 -7.484375 L 8.625 0 L 0.671875 0 L 13.78125 -34.671875 L 22.984375 -34.671875 L 35.25 0 L 26.609375 0 Z M 21.984375 -13.671875 L 17.578125 -26.765625 L 13.203125 -13.671875 Z M 21.984375 -13.671875 "/></g></g></g><g mask="url(#23423f7e33)"><g transform="matrix(1, 0, 0, 1, 0, 73)"><g clip-path="url(#6a306b8b29)"><g clip-path="url(#62500ce088)"><g clip-path="url(#fd8d4de17e)"><g clip-path="url(#09e8d33b0f)"><path fill="#ffffff" d="M 97.683594 0.378906 L 211.277344 113.972656 L 97.683594 227.570312 L -15.914062 113.972656 Z M 97.683594 0.378906 " fill-opacity="1" fill-rule="nonzero"/></g></g></g></g></g></g><g clip-path="url(#9d1c912332)"><g clip-path="url(#0b3d4c781a)"><g clip-path="url(#2412d7ce86)"><path fill="#800080" d="M 23.996094 150.253906 L 135.210938 112.875 L 172.304688 223.230469 L 61.085938 260.609375 Z M 23.996094 150.253906 " fill-opacity="1" fill-rule="nonzero"/></g></g></g><g clip-path="url(#ef61b3b273)"><path fill="#ffffff" d="M 134.070312 205.75 C 135.007812 205.75 135.777344 206.511719 135.777344 207.457031 C 135.777344 208.398438 135.007812 209.164062 134.0625 209.164062 C 133.125 209.164062 132.355469 208.398438 132.355469 207.457031 C 132.355469 206.511719 133.125 205.75 134.070312 205.75 Z M 111.546875 205.976562 C 112.488281 205.976562 113.253906 206.746094 113.253906 207.6875 C 113.253906 208.625 112.488281 209.394531 111.546875 209.394531 C 110.601562 209.394531 109.839844 208.625 109.839844 207.6875 C 109.839844 206.746094 110.601562 205.976562 111.546875 205.976562 Z M 138.703125 216.28125 C 139.640625 216.28125 140.410156 217.042969 140.410156 217.988281 C 140.410156 218.929688 139.640625 219.695312 138.703125 219.695312 C 137.757812 219.695312 136.988281 218.929688 136.988281 217.988281 C 136.988281 217.042969 137.757812 216.28125 138.703125 216.28125 Z M 90.203125 183.011719 L 68.316406 183.011719 L 68.316406 170.460938 C 68.316406 164.425781 73.226562 159.515625 79.261719 159.515625 C 85.292969 159.515625 90.203125 164.425781 90.203125 170.460938 Z M 83.875 215.84375 L 74.554688 215.84375 L 76.914062 199.695312 C 75.375 198.871094 74.324219 197.246094 74.324219 195.378906 C 74.324219 192.675781 76.515625 190.484375 79.214844 190.484375 C 81.917969 190.484375 84.109375 192.675781 84.109375 195.378906 C 84.109375 197.246094 83.066406 198.871094 81.523438 199.695312 Z M 133.167969 155.21875 C 134.109375 155.21875 134.875 155.984375 134.875 156.925781 C 134.875 157.871094 134.109375 158.636719 133.167969 158.636719 C 132.222656 158.636719 131.457031 157.871094 131.457031 156.925781 C 131.457031 155.984375 132.222656 155.21875 133.167969 155.21875 Z M 115.277344 169.441406 C 116.21875 169.441406 116.988281 170.210938 116.988281 171.15625 C 116.988281 172.09375 116.21875 172.863281 115.277344 172.863281 C 114.339844 172.863281 113.570312 172.09375 113.570312 171.15625 C 113.570312 170.210938 114.339844 169.441406 115.277344 169.441406 Z M 132.269531 174.664062 C 133.207031 174.664062 133.976562 175.433594 133.976562 176.371094 C 133.976562 177.316406 133.207031 178.078125 132.269531 178.078125 C 131.324219 178.078125 130.554688 177.316406 130.554688 176.371094 C 130.554688 175.433594 131.324219 174.664062 132.269531 174.664062 Z M 138.703125 185.257812 C 139.640625 185.257812 140.410156 186.027344 140.410156 186.964844 C 140.410156 187.910156 139.640625 188.679688 138.703125 188.679688 C 137.757812 188.679688 136.988281 187.910156 136.988281 186.964844 C 136.988281 186.027344 137.757812 185.257812 138.703125 185.257812 Z M 128.148438 190.347656 C 129.085938 190.347656 129.855469 191.113281 129.855469 192.058594 C 129.855469 193 129.085938 193.765625 128.148438 193.765625 C 127.207031 193.765625 126.441406 193 126.441406 192.058594 C 126.441406 191.113281 127.207031 190.347656 128.148438 190.347656 Z M 111.546875 190.347656 C 112.488281 190.347656 113.253906 191.113281 113.253906 192.058594 C 113.253906 193 112.488281 193.765625 111.546875 193.765625 C 110.601562 193.765625 109.839844 193 109.839844 192.058594 C 109.839844 191.113281 110.601562 190.347656 111.546875 190.347656 Z M 138.703125 195.539062 C 139.640625 195.539062 140.410156 196.308594 140.410156 197.246094 C 140.410156 198.1875 139.640625 198.953125 138.703125 198.953125 C 137.757812 198.953125 136.988281 198.1875 136.988281 197.246094 C 136.988281 196.308594 137.757812 195.539062 138.703125 195.539062 Z M 135.777344 197.894531 C 136.070312 199.234375 137.265625 200.246094 138.703125 200.246094 C 140.355469 200.246094 141.695312 198.898438 141.695312 197.246094 C 141.695312 195.597656 140.355469 194.25 138.703125 194.25 C 137.265625 194.25 136.070312 195.261719 135.777344 196.601562 L 103.957031 196.601562 L 103.957031 192.671875 L 108.617188 192.671875 C 108.902344 194.027344 110.109375 195.050781 111.546875 195.050781 C 113.199219 195.050781 114.546875 193.710938 114.546875 192.058594 C 114.546875 190.40625 113.199219 189.0625 111.546875 189.0625 C 110.125 189.0625 108.933594 190.058594 108.628906 191.386719 L 103.957031 191.386719 L 103.957031 187.453125 L 116.941406 187.453125 L 122.191406 192.699219 L 125.222656 192.699219 C 125.515625 194.042969 126.71875 195.050781 128.148438 195.050781 C 129.800781 195.050781 131.144531 193.710938 131.144531 192.058594 C 131.144531 190.40625 129.800781 189.0625 128.148438 189.0625 C 126.71875 189.0625 125.515625 190.070312 125.222656 191.414062 L 122.726562 191.414062 L 117.476562 186.164062 L 103.785156 186.164062 C 103.257812 184.347656 101.578125 183.011719 99.585938 183.011719 L 97.324219 183.011719 L 97.324219 182.234375 L 123.121094 182.234375 L 128.496094 187.609375 L 135.777344 187.609375 C 136.070312 188.957031 137.265625 189.960938 138.703125 189.960938 C 140.355469 189.960938 141.695312 188.617188 141.695312 186.964844 C 141.695312 185.3125 140.355469 183.972656 138.703125 183.972656 C 137.265625 183.972656 136.070312 184.980469 135.777344 186.324219 L 129.03125 186.324219 L 123.652344 180.949219 L 97.324219 180.949219 L 97.324219 177.015625 L 129.34375 177.015625 C 129.636719 178.355469 130.832031 179.371094 132.269531 179.371094 C 133.917969 179.371094 135.257812 178.023438 135.257812 176.371094 C 135.257812 174.71875 133.917969 173.375 132.269531 173.375 C 130.832031 173.375 129.636719 174.386719 129.34375 175.726562 L 97.324219 175.726562 L 97.324219 171.796875 L 112.355469 171.796875 C 112.648438 173.140625 113.851562 174.148438 115.277344 174.148438 C 116.929688 174.148438 118.277344 172.808594 118.277344 171.15625 C 118.277344 169.503906 116.929688 168.160156 115.277344 168.160156 C 113.851562 168.160156 112.648438 169.164062 112.355469 170.511719 L 97.324219 170.511719 L 97.324219 170.460938 C 97.324219 169.132812 97.179688 167.832031 96.90625 166.578125 L 115.546875 166.578125 L 124.554688 157.570312 L 130.242188 157.570312 C 130.539062 158.917969 131.734375 159.921875 133.167969 159.921875 C 134.820312 159.921875 136.160156 158.578125 136.160156 156.925781 C 136.160156 155.273438 134.820312 153.933594 133.167969 153.933594 C 131.734375 153.933594 130.539062 154.941406 130.242188 156.285156 L 124.019531 156.285156 L 115.011719 165.289062 L 96.570312 165.289062 C 94.34375 157.84375 87.425781 152.398438 79.261719 152.398438 C 69.300781 152.398438 61.199219 160.5 61.199219 170.460938 L 61.199219 183.011719 L 58.9375 183.011719 C 56.527344 183.011719 54.570312 184.964844 54.570312 187.378906 L 54.570312 218.152344 C 54.570312 220.558594 56.527344 222.515625 58.9375 222.515625 L 99.585938 222.515625 C 102 222.515625 103.957031 220.558594 103.957031 218.152344 L 103.957031 213.546875 L 126.980469 213.546875 L 132.066406 218.636719 L 135.777344 218.636719 C 136.070312 219.976562 137.265625 220.988281 138.703125 220.988281 C 140.355469 220.988281 141.695312 219.640625 141.695312 217.988281 C 141.695312 216.339844 140.355469 214.992188 138.703125 214.992188 C 137.265625 214.992188 136.070312 216.003906 135.777344 217.34375 L 132.597656 217.34375 L 127.511719 212.261719 L 103.957031 212.261719 L 103.957031 208.332031 L 108.621094 208.332031 C 108.917969 209.671875 110.117188 210.683594 111.546875 210.683594 C 113.199219 210.683594 114.546875 209.335938 114.546875 207.6875 C 114.546875 206.035156 113.199219 204.6875 111.546875 204.6875 C 110.117188 204.6875 108.917969 205.699219 108.621094 207.039062 L 103.957031 207.039062 L 103.957031 203.109375 L 115.011719 203.109375 L 120 208.101562 L 131.140625 208.101562 C 131.4375 209.441406 132.636719 210.453125 134.0625 210.453125 C 135.722656 210.453125 137.0625 209.109375 137.0625 207.457031 C 137.0625 205.804688 135.722656 204.460938 134.070312 204.460938 C 132.636719 204.460938 131.4375 205.472656 131.140625 206.8125 L 120.535156 206.8125 L 115.546875 201.824219 L 103.957031 201.824219 L 103.957031 197.894531 L 135.777344 197.894531 " fill-opacity="1" fill-rule="nonzero"/></g></svg>