<svg xmlns="http://www.w3.org/2000/svg" xmlns:xlink="http://www.w3.org/1999/xlink" width="500" zoomAndPan="magnify" viewBox="0 0 375 374.999991" height="500" preserveAspectRatio="xMidYMid meet" version="1.0"><defs><filter x="0%" y="0%" width="100%" height="100%" id="93aeeced36"><feColorMatrix values="0 0 0 0 1 0 0 0 0 1 0 0 0 0 1 0 0 0 1 0" color-interpolation-filters="sRGB"/></filter><mask id="bb826a61fe"><g filter="url(#93aeeced36)"><rect x="-37.5" width="450" fill="#000000" y="-37.499999" height="449.999989" fill-opacity="0.75"/></g></mask><clipPath id="5cece23cb4"><path d="M 53 49 L 324 49 L 324 320 L 53 320 Z M 53 49 " clip-rule="nonzero"/></clipPath><clipPath id="c0572fa029"><path d="M 188.238281 -6.355469 L 378.917969 184.324219 L 188.238281 375.003906 L -2.4375 184.324219 Z M 188.238281 -6.355469 " clip-rule="nonzero"/></clipPath><clipPath id="9b3e6457d4"><path d="M 283.578125 88.984375 C 230.925781 36.332031 145.554688 36.332031 92.902344 88.984375 C 40.246094 141.640625 40.246094 227.007812 92.902344 279.664062 C 145.554688 332.316406 230.925781 332.316406 283.578125 279.664062 C 336.234375 227.007812 336.234375 141.640625 283.578125 88.984375 Z M 283.578125 88.984375 " clip-rule="nonzero"/></clipPath><clipPath id="2677908109"><rect x="0" width="375" y="0" height="375"/></clipPath><clipPath id="e2978b537e"><path d="M 69 64 L 309 64 L 309 304 L 69 304 Z M 69 64 " clip-rule="nonzero"/></clipPath><clipPath id="994ad75c6e"><path d="M 64.546875 122.6875 L 251.234375 59.941406 L 313.496094 245.183594 L 126.808594 307.925781 Z M 64.546875 122.6875 " clip-rule="nonzero"/></clipPath><clipPath id="c25fac416e"><path d="M 80.898438 117.191406 L 234.847656 65.449219 C 239.183594 63.992188 243.921875 64.316406 248.019531 66.355469 C 252.117188 68.390625 255.234375 71.96875 256.695312 76.304688 L 307.960938 228.84375 C 309.417969 233.179688 309.09375 237.917969 307.058594 242.015625 C 305.023438 246.113281 301.441406 249.234375 297.105469 250.691406 L 143.160156 302.429688 C 138.820312 303.890625 134.085938 303.5625 129.988281 301.527344 C 125.890625 299.492188 122.769531 295.914062 121.3125 291.574219 L 70.042969 139.039062 C 68.585938 134.703125 68.910156 129.964844 70.949219 125.867188 C 72.984375 121.769531 76.5625 118.648438 80.898438 117.191406 Z M 80.898438 117.191406 " clip-rule="nonzero"/></clipPath><clipPath id="bd356b3fb6"><path d="M 120.015625 122.375 L 258.238281 122.375 L 258.238281 233.265625 L 120.015625 233.265625 Z M 120.015625 122.375 " clip-rule="nonzero"/></clipPath></defs><g mask="url(#bb826a61fe)"><g transform="matrix(1, 0, 0, 1, 0, 0)"><g clip-path="url(#2677908109)"><g clip-path="url(#5cece23cb4)"><g clip-path="url(#c0572fa029)"><g clip-path="url(#9b3e6457d4)"><path fill="#800080" d="M 188.238281 -6.355469 L 378.917969 184.324219 L 188.238281 375.003906 L -2.4375 184.324219 Z M 188.238281 -6.355469 " fill-opacity="1" fill-rule="nonzero"/></g></g></g></g></g></g><g clip-path="url(#e2978b537e)"><g clip-path="url(#994ad75c6e)"><g clip-path="url(#c25fac416e)"><path fill="#ffffff" d="M 64.546875 122.6875 L 251.234375 59.941406 L 313.496094 245.183594 L 126.808594 307.925781 Z M 64.546875 122.6875 " fill-opacity="1" fill-rule="nonzero"/></g></g></g><g clip-path="url(#bd356b3fb6)"><path fill="#040606" d="M 246.140625 206.746094 C 247.632812 206.746094 248.851562 207.953125 248.851562 209.449219 C 248.851562 210.933594 247.632812 212.148438 246.132812 212.148438 C 244.640625 212.148438 243.425781 210.933594 243.425781 209.449219 C 243.425781 207.953125 244.640625 206.746094 246.140625 206.746094 Z M 210.410156 207.109375 C 211.902344 207.109375 213.117188 208.320312 213.117188 209.808594 C 213.117188 211.292969 211.902344 212.507812 210.410156 212.507812 C 208.910156 212.507812 207.703125 211.292969 207.703125 209.808594 C 207.703125 208.320312 208.910156 207.109375 210.410156 207.109375 Z M 253.492188 223.40625 C 254.980469 223.40625 256.199219 224.609375 256.199219 226.105469 C 256.199219 227.589844 254.980469 228.804688 253.492188 228.804688 C 251.992188 228.804688 250.773438 227.589844 250.773438 226.105469 C 250.773438 224.609375 251.992188 223.40625 253.492188 223.40625 Z M 176.550781 170.785156 L 141.824219 170.785156 L 141.824219 150.933594 C 141.824219 141.390625 149.613281 133.625 159.1875 133.625 C 168.757812 133.625 176.550781 141.390625 176.550781 150.933594 Z M 166.507812 222.710938 L 151.722656 222.710938 L 155.464844 197.167969 C 153.019531 195.867188 151.351562 193.300781 151.351562 190.34375 C 151.351562 186.070312 154.828125 182.605469 159.117188 182.605469 C 163.402344 182.605469 166.878906 186.070312 166.878906 190.34375 C 166.878906 193.300781 165.222656 195.867188 162.777344 197.167969 Z M 244.710938 126.828125 C 246.203125 126.828125 247.421875 128.039062 247.421875 129.527344 C 247.421875 131.023438 246.203125 132.234375 244.710938 132.234375 C 243.210938 132.234375 241.996094 131.023438 241.996094 129.527344 C 241.996094 128.039062 243.210938 126.828125 244.710938 126.828125 Z M 216.332031 149.324219 C 217.820312 149.324219 219.039062 150.539062 219.039062 152.035156 C 219.039062 153.519531 217.820312 154.734375 216.332031 154.734375 C 214.839844 154.734375 213.621094 153.519531 213.621094 152.035156 C 213.621094 150.539062 214.839844 149.324219 216.332031 149.324219 Z M 243.28125 157.582031 C 244.773438 157.582031 245.992188 158.796875 245.992188 160.285156 C 245.992188 161.777344 244.773438 162.984375 243.28125 162.984375 C 241.78125 162.984375 240.566406 161.777344 240.566406 160.285156 C 240.566406 158.796875 241.78125 157.582031 243.28125 157.582031 Z M 253.492188 174.335938 C 254.980469 174.335938 256.199219 175.550781 256.199219 177.039062 C 256.199219 178.53125 254.980469 179.746094 253.492188 179.746094 C 251.992188 179.746094 250.773438 178.53125 250.773438 177.039062 C 250.773438 175.550781 251.992188 174.335938 253.492188 174.335938 Z M 236.746094 182.386719 C 238.238281 182.386719 239.453125 183.597656 239.453125 185.09375 C 239.453125 186.582031 238.238281 187.792969 236.746094 187.792969 C 235.253906 187.792969 234.035156 186.582031 234.035156 185.09375 C 234.035156 183.597656 235.253906 182.386719 236.746094 182.386719 Z M 210.410156 182.386719 C 211.902344 182.386719 213.117188 183.597656 213.117188 185.09375 C 213.117188 186.582031 211.902344 187.792969 210.410156 187.792969 C 208.910156 187.792969 207.703125 186.582031 207.703125 185.09375 C 207.703125 183.597656 208.910156 182.386719 210.410156 182.386719 Z M 253.492188 190.601562 C 254.980469 190.601562 256.199219 191.8125 256.199219 193.300781 C 256.199219 194.785156 254.980469 196 253.492188 196 C 251.992188 196 250.773438 194.785156 250.773438 193.300781 C 250.773438 191.8125 251.992188 190.601562 253.492188 190.601562 Z M 248.851562 194.320312 C 249.316406 196.441406 251.214844 198.039062 253.492188 198.039062 C 256.109375 198.039062 258.238281 195.910156 258.238281 193.300781 C 258.238281 190.6875 256.109375 188.558594 253.492188 188.558594 C 251.214844 188.558594 249.316406 190.160156 248.851562 192.28125 L 198.367188 192.28125 L 198.367188 186.0625 L 205.761719 186.0625 C 206.210938 188.207031 208.125 189.824219 210.410156 189.824219 C 213.03125 189.824219 215.164062 187.707031 215.164062 185.09375 C 215.164062 182.480469 213.03125 180.351562 210.410156 180.351562 C 208.152344 180.351562 206.261719 181.929688 205.777344 184.03125 L 198.367188 184.03125 L 198.367188 177.8125 L 218.96875 177.8125 L 227.296875 186.105469 L 232.105469 186.105469 C 232.574219 188.234375 234.476562 189.824219 236.746094 189.824219 C 239.367188 189.824219 241.5 187.707031 241.5 185.09375 C 241.5 182.480469 239.367188 180.351562 236.746094 180.351562 C 234.476562 180.351562 232.574219 181.945312 232.105469 184.074219 L 228.144531 184.074219 L 219.816406 175.769531 L 198.09375 175.769531 C 197.253906 172.894531 194.589844 170.785156 191.433594 170.785156 L 187.84375 170.785156 L 187.84375 169.554688 L 228.769531 169.554688 L 237.300781 178.058594 L 248.851562 178.058594 C 249.316406 180.1875 251.214844 181.777344 253.492188 181.777344 C 256.109375 181.777344 258.238281 179.648438 258.238281 177.039062 C 258.238281 174.425781 256.109375 172.304688 253.492188 172.304688 C 251.214844 172.304688 249.316406 173.898438 248.851562 176.027344 L 238.148438 176.027344 L 229.617188 167.523438 L 187.84375 167.523438 L 187.84375 161.304688 L 238.640625 161.304688 C 239.109375 163.421875 241.007812 165.023438 243.28125 165.023438 C 245.902344 165.023438 248.03125 162.894531 248.03125 160.285156 C 248.03125 157.671875 245.902344 155.542969 243.28125 155.542969 C 241.007812 155.542969 239.109375 157.144531 238.640625 159.261719 L 187.84375 159.261719 L 187.84375 153.046875 L 211.691406 153.046875 C 212.15625 155.171875 214.0625 156.765625 216.332031 156.765625 C 218.949219 156.765625 221.085938 154.644531 221.085938 152.035156 C 221.085938 149.421875 218.949219 147.292969 216.332031 147.292969 C 214.0625 147.292969 212.15625 148.886719 211.691406 151.011719 L 187.84375 151.011719 L 187.84375 150.933594 C 187.84375 148.832031 187.613281 146.773438 187.179688 144.796875 L 216.753906 144.796875 L 231.046875 130.546875 L 240.070312 130.546875 C 240.539062 132.675781 242.4375 134.269531 244.710938 134.269531 C 247.332031 134.269531 249.457031 132.140625 249.457031 129.527344 C 249.457031 126.914062 247.332031 124.796875 244.710938 124.796875 C 242.4375 124.796875 240.539062 126.386719 240.070312 128.515625 L 230.199219 128.515625 L 215.90625 142.753906 L 186.652344 142.753906 C 183.113281 130.976562 172.136719 122.367188 159.1875 122.367188 C 143.386719 122.367188 130.53125 135.183594 130.53125 150.933594 L 130.53125 170.785156 L 126.941406 170.785156 C 123.121094 170.785156 120.015625 173.871094 120.015625 177.6875 L 120.015625 226.359375 C 120.015625 230.167969 123.121094 233.265625 126.941406 233.265625 L 191.433594 233.265625 C 195.261719 233.265625 198.367188 230.167969 198.367188 226.359375 L 198.367188 219.078125 L 234.894531 219.078125 L 242.964844 227.125 L 248.851562 227.125 C 249.316406 229.246094 251.214844 230.84375 253.492188 230.84375 C 256.109375 230.84375 258.238281 228.71875 258.238281 226.105469 C 258.238281 223.492188 256.109375 221.363281 253.492188 221.363281 C 251.214844 221.363281 249.316406 222.964844 248.851562 225.085938 L 243.804688 225.085938 L 235.738281 217.046875 L 198.367188 217.046875 L 198.367188 210.828125 L 205.769531 210.828125 C 206.238281 212.949219 208.144531 214.546875 210.410156 214.546875 C 213.03125 214.546875 215.164062 212.421875 215.164062 209.808594 C 215.164062 207.195312 213.03125 205.066406 210.410156 205.066406 C 208.144531 205.066406 206.238281 206.667969 205.769531 208.789062 L 198.367188 208.789062 L 198.367188 202.570312 L 215.90625 202.570312 L 223.820312 210.46875 L 241.492188 210.46875 C 241.96875 212.585938 243.867188 214.1875 246.132812 214.1875 C 248.761719 214.1875 250.886719 212.058594 250.886719 209.449219 C 250.886719 206.835938 248.761719 204.707031 246.140625 204.707031 C 243.867188 204.707031 241.96875 206.308594 241.492188 208.425781 L 224.667969 208.425781 L 216.753906 200.539062 L 198.367188 200.539062 L 198.367188 194.320312 L 248.851562 194.320312 " fill-opacity="1" fill-rule="nonzero"/></g></svg>