<svg xmlns="http://www.w3.org/2000/svg" xmlns:xlink="http://www.w3.org/1999/xlink" width="500" zoomAndPan="magnify" viewBox="0 0 375 374.999991" height="500" preserveAspectRatio="xMidYMid meet" version="1.0"><defs><filter x="0%" y="0%" width="100%" height="100%" id="769f3088c0"><feColorMatrix values="0 0 0 0 1 0 0 0 0 1 0 0 0 0 1 0 0 0 1 0" color-interpolation-filters="sRGB"/></filter><mask id="6f6e1a58b3"><g filter="url(#769f3088c0)"><rect x="-37.5" width="450" fill="#000000" y="-37.499999" height="449.999989" fill-opacity="0.75"/></g></mask><clipPath id="8f3f5774c4"><path d="M 53 49 L 324 49 L 324 320 L 53 320 Z M 53 49 " clip-rule="nonzero"/></clipPath><clipPath id="ac8658f945"><path d="M 188.238281 -6.355469 L 378.917969 184.324219 L 188.238281 375.003906 L -2.4375 184.324219 Z M 188.238281 -6.355469 " clip-rule="nonzero"/></clipPath><clipPath id="ad8e5def57"><path d="M 283.578125 88.984375 C 230.925781 36.332031 145.554688 36.332031 92.902344 88.984375 C 40.246094 141.640625 40.246094 227.007812 92.902344 279.664062 C 145.554688 332.316406 230.925781 332.316406 283.578125 279.664062 C 336.234375 227.007812 336.234375 141.640625 283.578125 88.984375 Z M 283.578125 88.984375 " clip-rule="nonzero"/></clipPath><clipPath id="e4617294f4"><rect x="0" width="375" y="0" height="375"/></clipPath><clipPath id="54aa93822b"><path d="M 69 64 L 309 64 L 309 304 L 69 304 Z M 69 64 " clip-rule="nonzero"/></clipPath><clipPath id="9e5efbfa2b"><path d="M 64.546875 122.6875 L 251.234375 59.941406 L 313.496094 245.183594 L 126.808594 307.925781 Z M 64.546875 122.6875 " clip-rule="nonzero"/></clipPath><clipPath id="c12351dec7"><path d="M 80.898438 117.191406 L 234.847656 65.449219 C 239.183594 63.992188 243.921875 64.316406 248.019531 66.355469 C 252.117188 68.390625 255.234375 71.96875 256.695312 76.304688 L 307.960938 228.84375 C 309.417969 233.179688 309.09375 237.917969 307.058594 242.015625 C 305.023438 246.113281 301.441406 249.234375 297.105469 250.691406 L 143.160156 302.429688 C 138.820312 303.890625 134.085938 303.5625 129.988281 301.527344 C 125.890625 299.492188 122.769531 295.914062 121.3125 291.574219 L 70.042969 139.039062 C 68.585938 134.703125 68.910156 129.964844 70.949219 125.867188 C 72.984375 121.769531 76.5625 118.648438 80.898438 117.191406 Z M 80.898438 117.191406 " clip-rule="nonzero"/></clipPath><clipPath id="550a2939fb"><path d="M 120.015625 122.375 L 257.980469 122.375 L 257.980469 233.375 L 120.015625 233.375 Z M 120.015625 122.375 " clip-rule="nonzero"/></clipPath></defs><g mask="url(#6f6e1a58b3)"><g transform="matrix(1, 0, 0, 1, 0, 0)"><g clip-path="url(#e4617294f4)"><g clip-path="url(#8f3f5774c4)"><g clip-path="url(#ac8658f945)"><g clip-path="url(#ad8e5def57)"><path fill="#ffffff" d="M 188.238281 -6.355469 L 378.917969 184.324219 L 188.238281 375.003906 L -2.4375 184.324219 Z M 188.238281 -6.355469 " fill-opacity="1" fill-rule="nonzero"/></g></g></g></g></g></g><g clip-path="url(#54aa93822b)"><g clip-path="url(#9e5efbfa2b)"><g clip-path="url(#c12351dec7)"><path fill="#800080" d="M 64.546875 122.6875 L 251.234375 59.941406 L 313.496094 245.183594 L 126.808594 307.925781 Z M 64.546875 122.6875 " fill-opacity="1" fill-rule="nonzero"/></g></g></g><g clip-path="url(#550a2939fb)"><path fill="#ffffff" d="M 245.90625 206.855469 C 247.394531 206.855469 248.609375 208.0625 248.609375 209.558594 C 248.609375 211.046875 247.394531 212.261719 245.898438 212.261719 C 244.410156 212.261719 243.195312 211.046875 243.195312 209.558594 C 243.195312 208.0625 244.410156 206.855469 245.90625 206.855469 Z M 210.242188 207.214844 C 211.730469 207.214844 212.945312 208.429688 212.945312 209.917969 C 212.945312 211.40625 211.730469 212.621094 210.242188 212.621094 C 208.746094 212.621094 207.539062 211.40625 207.539062 209.917969 C 207.539062 208.429688 208.746094 207.214844 210.242188 207.214844 Z M 253.242188 223.53125 C 254.730469 223.53125 255.945312 224.738281 255.945312 226.238281 C 255.945312 227.726562 254.730469 228.941406 253.242188 228.941406 C 251.746094 228.941406 250.53125 227.726562 250.53125 226.238281 C 250.53125 224.738281 251.746094 223.53125 253.242188 223.53125 Z M 176.445312 170.847656 L 141.78125 170.847656 L 141.78125 150.96875 C 141.78125 141.414062 149.558594 133.640625 159.113281 133.640625 C 168.667969 133.640625 176.445312 141.414062 176.445312 150.96875 Z M 166.421875 222.835938 L 151.664062 222.835938 L 155.398438 197.265625 C 152.957031 195.960938 151.292969 193.390625 151.292969 190.429688 C 151.292969 186.152344 154.761719 182.679688 159.042969 182.679688 C 163.324219 182.679688 166.792969 186.152344 166.792969 190.429688 C 166.792969 193.390625 165.136719 195.960938 162.699219 197.265625 Z M 244.480469 126.832031 C 245.96875 126.832031 247.183594 128.046875 247.183594 129.535156 C 247.183594 131.035156 245.96875 132.25 244.480469 132.25 C 242.984375 132.25 241.769531 131.035156 241.769531 129.535156 C 241.769531 128.046875 242.984375 126.832031 244.480469 126.832031 Z M 216.152344 149.359375 C 217.640625 149.359375 218.855469 150.574219 218.855469 152.070312 C 218.855469 153.558594 217.640625 154.773438 216.152344 154.773438 C 214.664062 154.773438 213.445312 153.558594 213.445312 152.070312 C 213.445312 150.574219 214.664062 149.359375 216.152344 149.359375 Z M 243.054688 157.628906 C 244.542969 157.628906 245.757812 158.84375 245.757812 160.332031 C 245.757812 161.828125 244.542969 163.035156 243.054688 163.035156 C 241.554688 163.035156 240.339844 161.828125 240.339844 160.332031 C 240.339844 158.84375 241.554688 157.628906 243.054688 157.628906 Z M 253.242188 174.402344 C 254.730469 174.402344 255.945312 175.617188 255.945312 177.105469 C 255.945312 178.605469 254.730469 179.820312 253.242188 179.820312 C 251.746094 179.820312 250.53125 178.605469 250.53125 177.105469 C 250.53125 175.617188 251.746094 174.402344 253.242188 174.402344 Z M 236.527344 182.460938 C 238.015625 182.460938 239.230469 183.675781 239.230469 185.171875 C 239.230469 186.660156 238.015625 187.875 236.527344 187.875 C 235.039062 187.875 233.824219 186.660156 233.824219 185.171875 C 233.824219 183.675781 235.039062 182.460938 236.527344 182.460938 Z M 210.242188 182.460938 C 211.730469 182.460938 212.945312 183.675781 212.945312 185.171875 C 212.945312 186.660156 211.730469 187.875 210.242188 187.875 C 208.746094 187.875 207.539062 186.660156 207.539062 185.171875 C 207.539062 183.675781 208.746094 182.460938 210.242188 182.460938 Z M 253.242188 190.6875 C 254.730469 190.6875 255.945312 191.902344 255.945312 193.390625 C 255.945312 194.878906 254.730469 196.09375 253.242188 196.09375 C 251.746094 196.09375 250.53125 194.878906 250.53125 193.390625 C 250.53125 191.902344 251.746094 190.6875 253.242188 190.6875 Z M 248.609375 194.410156 C 249.078125 196.535156 250.96875 198.136719 253.242188 198.136719 C 255.859375 198.136719 257.980469 196.003906 257.980469 193.390625 C 257.980469 190.773438 255.859375 188.644531 253.242188 188.644531 C 250.96875 188.644531 249.078125 190.246094 248.609375 192.367188 L 198.222656 192.367188 L 198.222656 186.140625 L 205.601562 186.140625 C 206.050781 188.289062 207.960938 189.910156 210.242188 189.910156 C 212.855469 189.910156 214.988281 187.789062 214.988281 185.171875 C 214.988281 182.558594 212.855469 180.425781 210.242188 180.425781 C 207.988281 180.425781 206.101562 182.003906 205.617188 184.109375 L 198.222656 184.109375 L 198.222656 177.882812 L 218.785156 177.882812 L 227.097656 186.1875 L 231.894531 186.1875 C 232.363281 188.316406 234.265625 189.910156 236.527344 189.910156 C 239.144531 189.910156 241.273438 187.789062 241.273438 185.171875 C 241.273438 182.558594 239.144531 180.425781 236.527344 180.425781 C 234.265625 180.425781 232.363281 182.019531 231.894531 184.152344 L 227.941406 184.152344 L 219.628906 175.839844 L 197.949219 175.839844 C 197.113281 172.960938 194.453125 170.847656 191.300781 170.847656 L 187.714844 170.847656 L 187.714844 169.613281 L 228.566406 169.613281 L 237.082031 178.128906 L 248.609375 178.128906 C 249.078125 180.257812 250.96875 181.851562 253.242188 181.851562 C 255.859375 181.851562 257.980469 179.722656 257.980469 177.105469 C 257.980469 174.492188 255.859375 172.371094 253.242188 172.371094 C 250.96875 172.371094 249.078125 173.964844 248.609375 176.09375 L 237.929688 176.09375 L 229.414062 167.578125 L 187.714844 167.578125 L 187.714844 161.351562 L 238.421875 161.351562 C 238.886719 163.476562 240.78125 165.078125 243.054688 165.078125 C 245.667969 165.078125 247.792969 162.945312 247.792969 160.332031 C 247.792969 157.714844 245.667969 155.585938 243.054688 155.585938 C 240.78125 155.585938 238.886719 157.1875 238.421875 159.308594 L 187.714844 159.308594 L 187.714844 153.082031 L 211.519531 153.082031 C 211.984375 155.214844 213.886719 156.808594 216.152344 156.808594 C 218.765625 156.808594 220.898438 154.6875 220.898438 152.070312 C 220.898438 149.457031 218.765625 147.324219 216.152344 147.324219 C 213.886719 147.324219 211.984375 148.917969 211.519531 151.050781 L 187.714844 151.050781 L 187.714844 150.96875 C 187.714844 148.867188 187.488281 146.804688 187.054688 144.824219 L 216.574219 144.824219 L 230.839844 130.558594 L 239.847656 130.558594 C 240.316406 132.6875 242.207031 134.28125 244.480469 134.28125 C 247.09375 134.28125 249.21875 132.152344 249.21875 129.535156 C 249.21875 126.921875 247.09375 124.796875 244.480469 124.796875 C 242.207031 124.796875 240.316406 126.390625 239.847656 128.523438 L 229.992188 128.523438 L 215.726562 142.78125 L 186.527344 142.78125 C 182.996094 130.988281 172.039062 122.367188 159.113281 122.367188 C 143.339844 122.367188 130.511719 135.199219 130.511719 150.96875 L 130.511719 170.847656 L 126.925781 170.847656 C 123.113281 170.847656 120.015625 173.9375 120.015625 177.757812 L 120.015625 226.492188 C 120.015625 230.304688 123.113281 233.40625 126.925781 233.40625 L 191.300781 233.40625 C 195.121094 233.40625 198.222656 230.304688 198.222656 226.492188 L 198.222656 219.199219 L 234.679688 219.199219 L 242.738281 227.257812 L 248.609375 227.257812 C 249.078125 229.378906 250.96875 230.984375 253.242188 230.984375 C 255.859375 230.984375 257.980469 228.851562 257.980469 226.238281 C 257.980469 223.621094 255.859375 221.488281 253.242188 221.488281 C 250.96875 221.488281 249.078125 223.09375 248.609375 225.214844 L 243.574219 225.214844 L 235.523438 217.167969 L 198.222656 217.167969 L 198.222656 210.941406 L 205.609375 210.941406 C 206.078125 213.0625 207.980469 214.664062 210.242188 214.664062 C 212.855469 214.664062 214.988281 212.535156 214.988281 209.917969 C 214.988281 207.304688 212.855469 205.171875 210.242188 205.171875 C 207.980469 205.171875 206.078125 206.773438 205.609375 208.898438 L 198.222656 208.898438 L 198.222656 202.671875 L 215.726562 202.671875 L 223.628906 210.578125 L 241.265625 210.578125 C 241.742188 212.703125 243.632812 214.304688 245.898438 214.304688 C 248.523438 214.304688 250.644531 212.171875 250.644531 209.558594 C 250.644531 206.941406 248.523438 204.8125 245.90625 204.8125 C 243.632812 204.8125 241.742188 206.414062 241.265625 208.535156 L 224.472656 208.535156 L 216.574219 200.636719 L 198.222656 200.636719 L 198.222656 194.410156 L 248.609375 194.410156 " fill-opacity="1" fill-rule="nonzero"/></g></svg>